/* XPM */
static char *_002[] = {
/* columns rows colors chars-per-pixel */
"30 30 140 2 ",
"   c black",
".  c #000001",
"X  c #000003",
"o  c #010007",
"O  c #010009",
"+  c #010004",
"@  c #010008",
"#  c #000006",
"$  c #000004",
"%  c #000002",
"&  c #000211",
"*  c #00012A",
"=  c #000131",
"-  c #000132",
";  c #00012B",
":  c #000128",
">  c #00012C",
",  c #00012F",
"<  c #000130",
"1  c #00022A",
"2  c #01031A",
"3  c #010213",
"4  c #010212",
"5  c #010312",
"6  c #010211",
"7  c #010210",
"8  c #020309",
"9  c #010103",
"0  c #00004A",
"q  c #09008B",
"w  c #0A0092",
"e  c #0A0093",
"r  c #090092",
"t  c #090090",
"y  c #0B0091",
"u  c #0C0093",
"i  c #0F0095",
"p  c #0A008C",
"a  c #01006F",
"s  c #000059",
"d  c #000057",
"f  c #000056",
"g  c #000054",
"h  c #00003D",
"j  c #00000E",
"k  c #010100",
"l  c #010001",
"z  c #040116",
"x  c #8D6CD3",
"c  c #BC98FD",
"v  c #B691F9",
"b  c #B891FA",
"n  c #B791FA",
"m  c #B791FC",
"M  c #B891FD",
"N  c #BC95FC",
"B  c #BD97FB",
"V  c #C09AFB",
"C  c #BE9AFB",
"Z  c #B591F6",
"A  c #A684EA",
"S  c #9B78E6",
"D  c #9F7CE6",
"F  c #A280E7",
"G  c #9C7BE7",
"H  c #9B7AE7",
"J  c #9C7AE6",
"K  c #9E7CE6",
"L  c #A381E6",
"P  c #9E7BE6",
"I  c #9E7CE4",
"U  c #A27EE7",
"Y  c #2E1F64",
"T  c #020102",
"R  c #060118",
"E  c #AC8FDE",
"W  c #E1C5FF",
"Q  c #D8BBFE",
"!  c #D9BAFF",
"~  c #D6BAFE",
"^  c #CBB0F5",
"/  c #CAB1F4",
"(  c #CAADF7",
")  c #CCADFA",
"_  c #D2B2FD",
"`  c #D5B7FE",
"'  c #DBBFFF",
"]  c #CAAAF8",
"[  c #B798EB",
"{  c #B190EA",
"}  c #AE8CEA",
"|  c #B496EA",
" . c #B596EB",
".. c #B090EA",
"X. c #AD8AEA",
"o. c #B294EA",
"O. c #B395E7",
"+. c #B391EC",
"@. c #322267",
"#. c #020202",
"$. c #010000",
"%. c #050053",
"&. c #170099",
"*. c #17009D",
"=. c #17009F",
"-. c #150098",
";. c #070075",
":. c #050069",
">. c #07006F",
",. c #0F007A",
"<. c #160282",
"1. c #100082",
"2. c #140088",
"3. c #0B007A",
"4. c #00005D",
"5. c #00005B",
"6. c #00005A",
"7. c #000058",
"8. c #000042",
"9. c #00000F",
"0. c #000114",
"q. c #000030",
"w. c #000036",
"e. c #000033",
"r. c #00011D",
"t. c #000111",
"y. c #000112",
"u. c #000015",
"i. c #000018",
"p. c #000118",
"a. c #000214",
"s. c #010314",
"d. c #010313",
"f. c #010309",
"g. c #010108",
"h. c #010109",
"j. c #010106",
"k. c #010003",
"l. c #010002",
"z. c white",
/* pixels */
"                                                            ",
"                                                            ",
"                                                            ",
"                                                            ",
"                                                            ",
"                                                            ",
"                                                            ",
"                                                            ",
"                                                            ",
"                                                            ",
"        . . . . . . . . . . . . . .                         ",
"      X o O O O O O o + + o @ @ # $ X X X % X X X % %       ",
"    . & * = - - - - ; : > , < 1 2 3 4 4 5 4 6 4 4 7 8 9     ",
"      0 q w e r r r t y u i p a s d d d d d f f f g h j k   ",
"l   z x c v b n m M N B V C Z A S D F G H J K L P I U Y   T ",
"l   R E W Q ! ~ ^ / ( ) _ ` ' ] [ { } |  .| ..X.o.O.+.@.  #.",
"  $.  %.&.*.=.-.;.:.>.,.<.1.2.3.4.4.5.6.6.s 6.6.6.7.8.9.k   ",
"      0.q.w.w.e.r.t.y.0.0.u.i.p.a.s.d.3 3 d.3 3 3 & f.9     ",
"      + g.h.g.j.+ k.k.k.k.9 9 k.k.X X k.k.k.k.X k.l.%       ",
"        . . . . . . . . . . . .     .                       ",
"                                                            ",
"                                                            ",
"                                                            ",
"                                                            ",
"                                                            ",
"                                                            ",
"                                                            ",
"                                                            ",
"                                                            ",
"                                                            "
};
