/* XPM */
static char *_000[] = {
/* columns rows colors chars-per-pixel */
"30 30 253 2 ",
"   c #010100",
".  c #0B0102",
"X  c #040907",
"o  c #130202",
"O  c #1A0101",
"+  c #170A0B",
"@  c #0D0D12",
"#  c #131315",
"$  c #150E11",
"%  c #230202",
"&  c #280609",
"*  c #3C0203",
"=  c #360509",
"-  c #25160B",
";  c #32130D",
":  c #290818",
">  c #391A13",
",  c #321317",
"<  c #322316",
"1  c #151925",
"2  c #3F1F25",
"3  c #19222D",
"4  c #3B3628",
"5  c #1A2311",
"6  c #450303",
"7  c #4B0304",
"8  c #43070B",
"9  c #520303",
"0  c #5D0302",
"q  c #580A07",
"w  c #5A1308",
"e  c #561518",
"r  c #530815",
"t  c #630102",
"y  c #690707",
"u  c #730303",
"i  c #780408",
"p  c #680B1B",
"a  c #780B16",
"s  c #70150D",
"d  c #4C2F1C",
"f  c #6C2200",
"g  c #451526",
"h  c #481C32",
"j  c #531328",
"k  c #7D1833",
"l  c #6E142B",
"z  c #582533",
"x  c #57302C",
"c  c #78233A",
"v  c #6D3331",
"b  c #71411C",
"n  c #54532C",
"m  c #7B6E2F",
"M  c #62461C",
"N  c #303C43",
"B  c #670744",
"V  c #4A374D",
"C  c #762C48",
"Z  c #6C2F47",
"A  c #71376F",
"S  c #37414F",
"D  c #464657",
"F  c #574B4E",
"G  c #724A53",
"H  c #525375",
"J  c #404967",
"K  c #6D4675",
"L  c #746060",
"P  c #840103",
"I  c #840405",
"U  c #960404",
"Y  c #840A1D",
"T  c #8A191C",
"R  c #921403",
"E  c #A80606",
"W  c #BA0709",
"Q  c #B60517",
"!  c #B31510",
"~  c #922D12",
"^  c #BB2F11",
"/  c #93182C",
"(  c #A40629",
")  c #BC0B2D",
"_  c #B91B22",
"`  c #A11823",
"'  c #91242D",
"]  c #8E3637",
"[  c #AE342E",
"{  c #CA0604",
"}  c #DD0203",
"|  c #D30702",
" . c #DB180A",
".. c #CB1C16",
"X. c #CF0F16",
"o. c #E70509",
"O. c #FF0E0B",
"+. c #FA030B",
"@. c #FA1608",
"#. c #FD031C",
"$. c #FB0816",
"%. c #E6151A",
"&. c #FD131C",
"*. c #FD1A17",
"=. c #EB1407",
"-. c #CF3110",
";. c #FE220C",
":. c #FB380D",
">. c #FD2518",
",. c #FB3817",
"<. c #E82B13",
"1. c #DE142B",
"2. c #CE0B29",
"3. c #FD0025",
"4. c #FD0627",
"5. c #FE1728",
"6. c #F40F3A",
"7. c #FE2624",
"8. c #F93427",
"9. c #FC383B",
"0. c #F52F30",
"q. c #C42F25",
"w. c #8B4E0B",
"e. c #A74B1A",
"r. c #A7653D",
"t. c #A35926",
"y. c #CF5119",
"u. c #FB440C",
"i. c #FB4616",
"p. c #EC5818",
"a. c #F95616",
"s. c #F95207",
"d. c #FD640B",
"f. c #FE760E",
"g. c #FD6816",
"h. c #FA761B",
"j. c #EB6E15",
"k. c #CF512E",
"l. c #FD4A26",
"z. c #FD5523",
"x. c #EE5635",
"c. c #FC6727",
"v. c #FC7837",
"b. c #F77B31",
"n. c #CB7B29",
"m. c #960040",
"M. c #972F53",
"N. c #8E355D",
"B. c #B02C43",
"V. c #A8106F",
"C. c #B52C6E",
"Z. c #FA1446",
"A. c #FA0859",
"S. c #F51256",
"D. c #D42851",
"F. c #FE3A44",
"G. c #FD265D",
"H. c #F2274E",
"J. c #E43474",
"K. c #C01454",
"L. c #826144",
"P. c #A84A66",
"I. c #86706A",
"U. c #AA676B",
"Y. c #924956",
"T. c #F9494D",
"R. c #D0734D",
"E. c #F86858",
"W. c #FC7452",
"Q. c #F47147",
"!. c #DF5369",
"~. c #E37660",
"^. c #C85F5E",
"/. c #F88819",
"(. c #FD991D",
"). c #FA940C",
"_. c #F8A41B",
"`. c #DE8137",
"'. c #FD9721",
"]. c #FB8E31",
"[. c #FEA620",
"{. c #FCAD39",
"}. c #FEB439",
"|. c #F4B32D",
" X c #FAC93C",
".X c #FBEA3E",
"XX c #BB8B5C",
"oX c #FAB648",
"OX c #FAAB5D",
"+X c #FDBA5C",
"@X c #ECAC48",
"#X c #E5876B",
"$X c #FEB979",
"%X c #F9B06B",
"&X c #C89668",
"*X c #FCCD4A",
"=X c #FBCB4F",
"-X c #FFF34B",
";X c #FDEF56",
":X c #FBD776",
">X c #FBCD76",
",X c #FAE378",
"<X c #FFF277",
"1X c #D4D361",
"2X c #6C5E91",
"3X c #AF0787",
"4X c #F60E8D",
"5X c #FE2B9D",
"6X c #EC2F8D",
"7X c #F814AE",
"8X c #FA23BD",
"9X c #EF32B6",
"0X c #8C7290",
"qX c #ED5588",
"wX c #FF7B8E",
"eX c #EF6DB2",
"rX c #F85DB3",
"tX c #EF1AC6",
"yX c #F433CE",
"uX c #E12AF0",
"iX c #D758FF",
"pX c #E05DF6",
"aX c #778384",
"sX c #939694",
"dX c #A7AC93",
"fX c #ADA7B6",
"gX c #FDB1AC",
"hX c #E6A0A0",
"jX c #FBD08A",
"kX c #F6EA8C",
"lX c #F1EA91",
"zX c #D4D9A8",
"xX c #F2D2B0",
"cX c #FCFAA9",
"vX c #FDEBB7",
"bX c #FEFFBE",
"nX c #FCFCB6",
"mX c #F4F0B1",
"MX c #CCD39B",
"NX c #B6B1C0",
"BX c #EC8BCE",
"VX c #F9B5C7",
"CX c #D797FF",
"ZX c #EE8EF3",
"AX c #F7D7D6",
"SX c #FED4CD",
"DX c #FCFBC6",
"FX c #FDF0D0",
"GX c #F5D7FD",
"HX c #FDFAE9",
"JX c #FFFFFF",
"KX c #FBFCF3",
"LX c #F3EEE8",
/* pixels */
"n 5   % %     .     X X e i y s t t t 0 y *       r %       ",
">     o O O       X     > p.i.,.O.{ +.+.;.R     r *.P q * o ",
"d   .   n d - ; o         5 e.<.<.E E { =.y   O Z.5.P W U . ",
"-     . 1X4   - hX0XV $     w ! :...t u 0 .   U Z.4X{  .u . ",
"    i ..- @   @ KXJXSXxXfXD   Y :. .u 9 %   * o.4.4X) | _ : ",
"o E #.z.m     + BXGXBXjXJXNX+ 2 0.=.E O   X ..2.H.uXS.o.J.B ",
"u &.#.].lX+   + H.hXZXGXJXfX    U.;.9   . R l.4X9XtXA.7X6Xi ",
"Y 5.u.,XHX4   O |.}.h.vXKXdX  X P.q   8 X.*.:.A.tX4X7X7X%.X.",
"c F.a.kXJX4   O m <XlXnXcXdX  $ D   a #.&.&.>.9.8XA.Z.4.} 1.",
"k G.h.DXHXF   - . dXHXlXbXsX  # D X.4.7.,.4.7.T.5Xv.i.3.+.1.",
"k 5XF.$XnXzX: l l G lX-XmXaX  # D 7 = M |.g.z.F.H.h.l.l.*.%.",
"m.pXyXBXHXJXI.. z C 0XzXaX2X. 1 S       zX;X,.3.5.*.l..Xi.1.",
"V.uXyXCXGXJXLX;     X 1 J H 2XK V = & L JXDX=X].c.].{.[.a.y.",
"Q 7XA.4XhXDXDX&Xz &         X @ @ r p ] ^.hXAXjXoX,X<X*X/.n.",
"E 4.} +.i.z.c.-XW.!.sXD 3                 7 Y.h v v ] R.oXy.",
"I  .o.o.o.$.#.c.i.7.@XN H 0XK , .       o ' #       6 ^ {.v.",
"y  .+.W 7 P $.#.0.8.|.n O G # l / ] p % 8 8       . 0 R.(.E.",
"y } O.{ 9 p U #.5.l.$XMX: Z   j F.wXQ.r.+       o * y #Xf.E.",
"w.j.@.| w p ( | 4.z.hXLXG h   c yXeX'.oXn.e = 8 y * y #Xf.E.",
"0 y.d. .P 9 ( o.4.9.*XcXhXg   C iXqXd.#.g.8.= & Q Q ' x.f.R.",
"s R E j.-.E 2.&.3.a.;XcXSXg   N.iX6Xd.#.:.h.[   . X.[ W.d.k.",
"Q *.R U p.h.O.3.l./.>XKXAX: O g P.8XT.:.+./.@X8   7 P e q.! ",
"' 6.O.O.U y.h.>./.(.}.bXHXXX7 % f qXJ.z.+.g.}.~     U 9 o q ",
"v D.} E W } &.b.{.>XcXkXU.d o a ) <.;.s.;.a.[.y.    & E   0 ",
"G J.` w t o.7.G.+X:XFXvXz   o r Y *.u.:.u.:._.@X9     u * 7 ",
"Z B.M.K.W %.7.0.c.xXcXvXv     l o ! i.:.u.F.%X-X`.0   6 I 6 ",
"Z C.V.V.Z.$.#.S.eXVX=XFXAXU.o / : % X.a.:.l.gX:X_.k.T O y I ",
"Z C.3X) 2.$.@.T.ZXVX XFXJXJX&XD.M.. * -.g.s.$X,X).v.OXu O ..",
"x k.^ o.=.W 8.6.rX$X=XOXSXcX;XQ.C.=   y c.h.wXgX'.c.+X~.6 s ",
"> r T s i 0 a N.B.~ L.] N.] w.e./ k   y [ b C A b v G I._ 7 "
};
