/* XPM */
static char *_000[] = {
/* columns rows colors chars-per-pixel */
"30 24 161 2 ",
"   c None",
".  c #10100D",
"X  c #191C0B",
"o  c #2C2F16",
"O  c #363B18",
"+  c #333525",
"@  c #393B2A",
"#  c #3A4C15",
"$  c #3E451D",
"%  c #335415",
"&  c #3B4E20",
"*  c #3F4331",
"=  c #425518",
"-  c #495B1C",
";  c #50521E",
":  c #4D621C",
">  c #46661C",
",  c #575B21",
"<  c #5E5F31",
"1  c #555C3B",
"2  c #4F6320",
"3  c #536126",
"4  c #5F792A",
"5  c #597824",
"6  c #666A37",
"7  c #686F3D",
"8  c #6F7E31",
"9  c #565554",
"0  c #5F6443",
"q  c #6B7940",
"w  c #5F9427",
"e  c #618120",
"r  c #6A822A",
"t  c #6F8B2E",
"y  c #6B9B2E",
"u  c #75962A",
"i  c #759C27",
"p  c #798439",
"a  c #728131",
"s  c #7E9B31",
"d  c #7DA42B",
"f  c #78A132",
"g  c #868C36",
"h  c #819636",
"j  c #839E35",
"k  c #859339",
"l  c #84AF2B",
"z  c #85B12C",
"x  c #89B42F",
"c  c #8FA33F",
"v  c #84A536",
"b  c #93AC3B",
"n  c #89B434",
"m  c #8DBA3F",
"M  c #94BD36",
"N  c #94B739",
"B  c #96B93C",
"V  c #99BE3B",
"C  c #ACB23E",
"Z  c #96C334",
"A  c #9CC33A",
"S  c #99C637",
"D  c #A2CC3C",
"F  c #858843",
"G  c #8A944A",
"H  c #909B48",
"J  c #94A545",
"K  c #91AF44",
"L  c #9DA248",
"P  c #9DB149",
"I  c #A4BA4A",
"U  c #B2B74C",
"Y  c #A0A651",
"T  c #A5AC51",
"R  c #A6B45C",
"E  c #B7BE5E",
"W  c #B8BF5A",
"Q  c #B1BE53",
"!  c #888B76",
"~  c #9AAD79",
"^  c #AFB461",
"/  c #B1B764",
"(  c #B4BD66",
")  c #A1B273",
"_  c #B4B771",
"`  c #A2C244",
"'  c #A7CC41",
"]  c #AACC45",
"[  c #A4C24C",
"{  c #AFCE49",
"}  c #B0C64E",
"|  c #B2CF4B",
" . c #BEC944",
".. c #ABD144",
"X. c #AFD349",
"o. c #B3D34B",
"O. c #B9D64F",
"+. c #A5C35D",
"@. c #BAC757",
"#. c #B4C758",
"$. c #BAC45D",
"%. c #BCCB5C",
"&. c #B5C953",
"*. c #AFD051",
"=. c #B3D550",
"-. c #BDD653",
";. c #BFD855",
":. c #BCD55C",
">. c #A8C263",
",. c #B5CB65",
"<. c #ADC17B",
"1. c #B8C474",
"2. c #CFD44E",
"3. c #D0D54E",
"4. c #C4C859",
"5. c #C1D756",
"6. c #C4D55C",
"7. c #C9D45F",
"8. c #C5D959",
"9. c #C9DA5E",
"0. c #D6DB50",
"q. c #D5DA5B",
"w. c #D1D655",
"e. c #C1C462",
"r. c #CCDA64",
"t. c #D4DC64",
"y. c #D6DD6A",
"u. c #D9DD66",
"i. c #C0CE72",
"p. c #CADF77",
"a. c #CADC78",
"s. c #D2DF74",
"d. c #D4DD7C",
"f. c #D5D977",
"g. c #D7E06A",
"h. c #CBE077",
"j. c #DCE177",
"k. c #DBE27C",
"l. c #2C9093",
"z. c #7FD1EB",
"x. c #819481",
"c. c #8AC3B9",
"v. c #A2CCBF",
"b. c #C2C681",
"n. c #C5DF81",
"m. c #D2DD80",
"M. c #D2D68C",
"N. c #D5D891",
"B. c #D6E18F",
"V. c #DFE48A",
"C. c #DBEA9E",
"Z. c #E2E687",
"A. c #E0E692",
"S. c #E6E99A",
"D. c #E5E899",
"F. c #D3D6B5",
"G. c #E4E7A3",
"H. c #80D7F2",
"J. c #D7D5C3",
"K. c #DEEEDF",
"L. c #DBE2E7",
/* pixels */
"                        < e.y.@.W <                         ",
"                        7.r.H ) B.y.                        ",
"                      s { I ! L.v.:.t.y.g.Y F               ",
"                    = v ' K K.H.l.[ 5.8.9.t.T               ",
"                    x S D B x.z.c.*.O.-.;.8.J               ",
"                    z Z S S t <.n.X...o.O.-.;.              ",
"                    # R h.p.p.,.M M A ....o.h               ",
"                  p g 4.Z.D.D.A.a.R q C.1.r -               ",
"                  6.k C q.u.j.y.Z.f._ S.M.7                 ",
"                  6.I b  .2.w.3.q.q.4.L 6 +                 ",
"                  } 7.] b 7.u.                              ",
"  X               P } n - E y.^                             ",
"o G O           X k j = s o.k.b.@                           ",
"  d.#.;.      $ a Q [ N V B d.D.N.                          ",
"  q.s.:.O.O.O.| o.8 c A u 3 1.D.G.F.                        ",
"    t.s.:.=...' ..] 7.| Z P ( V.m.+.                        ",
"      t.k.r.o.` A ..o.j u G $./ %.>.J.                      ",
"        0.U R J d D D 5 r %.$.= K [                         ",
"            ; , # d Z Z A D ` > w 5                         ",
"                  e z l z x A y %                           ",
"                  i n A A n m v                             ",
"                  p &.9.r.` 4 f                             ",
"                : b ;.-.;.i.1 ~ & *                         ",
"                = - : : 2 0 @ 9 . + 9                       "
};
