/* XPM */
static char *_003[] = {
/* columns rows colors chars-per-pixel */
"30 30 238 2 ",
"   c #030101",
".  c #0B0302",
"X  c #0C0804",
"o  c #130303",
"O  c #1B0404",
"+  c #1B0805",
"@  c #140C0A",
"#  c #1A0B09",
"$  c #140905",
"%  c #1F1409",
"&  c #191519",
"*  c #230503",
"=  c #2C0604",
"-  c #240905",
";  c #2C0904",
":  c #220708",
">  c #240C09",
",  c #2B0C09",
"<  c #280708",
"1  c #330505",
"2  c #3A0604",
"3  c #320A04",
"4  c #3B0B04",
"5  c #330D09",
"6  c #3C0C09",
"7  c #330708",
"8  c #2E120D",
"9  c #34130B",
"0  c #3C130C",
"q  c #271817",
"w  c #3B1612",
"e  c #381B17",
"r  c #3B2B13",
"t  c #371822",
"y  c #440303",
"u  c #440C03",
"i  c #4C0C03",
"p  c #430E0A",
"a  c #480706",
"s  c #590201",
"d  c #540D05",
"f  c #5C0D05",
"g  c #5B0D08",
"h  c #560606",
"j  c #411407",
"k  c #4B1204",
"l  c #44120A",
"z  c #4A130B",
"x  c #4D1C0F",
"c  c #451805",
"v  c #541204",
"b  c #5C1303",
"n  c #5B160B",
"m  c #521A0B",
"M  c #5A1B0D",
"N  c #5A1A09",
"B  c #4B1D11",
"V  c #531D14",
"C  c #650104",
"Z  c #680D06",
"A  c #680803",
"S  c #730000",
"D  c #750E0A",
"F  c #780D09",
"G  c #631404",
"H  c #6D1407",
"J  c #631209",
"K  c #681A09",
"L  c #721D0D",
"P  c #771607",
"I  c #7C1E10",
"U  c #5E290E",
"Y  c #563D0F",
"T  c #452312",
"R  c #4A2218",
"E  c #582817",
"W  c #593517",
"Q  c #64270B",
"!  c #652B0B",
"~  c #69240A",
"^  c #732107",
"/  c #75220A",
"(  c #7C220C",
")  c #7C2506",
"_  c #6C330D",
"`  c #69350E",
"'  c #7A300E",
"]  c #7F380B",
"[  c #672A14",
"{  c #742312",
"}  c #7B2A12",
"|  c #6A3711",
" . c #6D3C19",
".. c #673915",
"X. c #793914",
"o. c #593622",
"O. c #653825",
"+. c #71430C",
"@. c #6E4D1D",
"#. c #7B4915",
"$. c #7C411B",
"%. c #7D4816",
"&. c #7E5112",
"*. c #785619",
"=. c #7A570F",
"-. c #7C6B1A",
";. c #684423",
":. c #7D502B",
">. c #7C4B30",
",. c #860001",
"<. c #970506",
"1. c #9B0806",
"2. c #83110C",
"3. c #8B1C09",
"4. c #9B150D",
"5. c #9D1B0D",
"6. c #981409",
"7. c #8B1F16",
"8. c #A40605",
"9. c #A50C07",
"0. c #AC1709",
"q. c #852C0C",
"w. c #8D2D0C",
"e. c #85340D",
"r. c #8C330C",
"t. c #843C0D",
"y. c #97370D",
"u. c #852814",
"i. c #882511",
"p. c #8B3B14",
"a. c #863A12",
"s. c #973512",
"d. c #972710",
"f. c #B6260A",
"g. c #B32A14",
"h. c #A92A13",
"j. c #AA3420",
"k. c #94430F",
"l. c #814C15",
"z. c #8A4818",
"x. c #9B4B1A",
"c. c #934713",
"v. c #835415",
"b. c #865618",
"n. c #975716",
"m. c #85460F",
"M. c #AB4917",
"N. c #AE5216",
"B. c #866F16",
"V. c #856514",
"C. c #9A6216",
"Z. c #956C19",
"A. c #8B7315",
"S. c #877619",
"D. c #837016",
"F. c #957215",
"G. c #9A7213",
"H. c #937D12",
"J. c #9A751B",
"K. c #A56717",
"L. c #A2721A",
"P. c #A67719",
"I. c #B5641A",
"U. c #864525",
"Y. c #8F5923",
"T. c #AB4628",
"R. c #B2502A",
"E. c #9A6A27",
"W. c #8E7221",
"Q. c #937F29",
"!. c #977B39",
"~. c #9E6538",
"^. c #A26A21",
"/. c #A57527",
"(. c #B47729",
"). c #AC7139",
"_. c #C56B3B",
"`. c #A55B43",
"'. c #9E920D",
"]. c #8D841F",
"[. c #908014",
"{. c #9C9516",
"}. c #A6871E",
"|. c #A2951B",
" X c #A89719",
".X c #B2971D",
"XX c #A9A318",
"oX c #998729",
"OX c #9C9925",
"+X c #988A38",
"@X c #9D9B3B",
"#X c #A88B26",
"$X c #B58C24",
"%X c #A89A27",
"&X c #B99927",
"*X c #A78231",
"=X c #B99733",
"-X c #B18735",
";X c #A8A826",
":X c #B4AB24",
">X c #BCAC24",
",X c #B8A82E",
"<X c #BFB424",
"1X c #A8A63D",
"2X c #B3A53C",
"3X c #C3BB27",
"4X c #C3B727",
"5X c #C6A332",
"6X c #C2B232",
"7X c #C7C32A",
"8X c #928C42",
"9X c #9E9B47",
"0X c #928F56",
"qX c #9B9757",
"wX c #A89B48",
"eX c #AB9C53",
"rX c #9FA54D",
"tX c #ABA340",
"yX c #A5A544",
"uX c #B0B14C",
"iX c #A7A653",
"pX c #BDBF5E",
"aX c #9C9A6D",
"sX c #9D9D7C",
"dX c #9FA16E",
"fX c #A4A669",
"gX c #A8AA73",
"hX c #AFB174",
"jX c #AFBA69",
"kX c #C69D4B",
"lX c #C9C140",
"zX c #9F9E8A",
"xX c #A19D81",
"cX c #A6A887",
"vX c #A9A899",
"bX c #ACB48D",
"nX c #ADAEAA",
"mX c #B0B1A5",
/* pixels */
": = p ,     -.iXcXnXnXmXhX:XS.A.|.OXfXcXcXvXxXqX].V._ 0 + * ",
": 7 6   % Y [.OXrXgXvXgX1XXXD.A.'.OXiXfXdXzXaX8XS.&.Q ; + + ",
"o 7 o   U V.H.{.;X1XbXiX|.XXS.-.*.*.9XrXqXsXqX+XB.#...9 O - ",
"o < O , ! =.H.{.XX;XjXtX X|.*.I C C *XyX9XaXqXoXB. .o.w O + ",
"= + p z %.v.H.|.XX;XuX%X%Xn.(.j.S H 1XyXyXfXqX+XA.W W W < - ",
"O . 0 z v.&.H. XXXW.tX;X|.N.kXT.S ' @X:.!.0XeXoXF.W W T : - ",
"O   6 p ! v.G. X:X.X!.,X,XM.M.3.S #.i.6.j.s.+X#XZ.| N 6 < O ",
".   6 6 Q v.G..X:X3X*XoX#Xh.y.F D [ <.5.g.f.u.Q.G.e.L 3 + ; ",
"  O l u Q v.G. X>X<X6Xb.F f.y.2.S C 8.5.0.f.<.} Z.k.x.x O > ",
"o u 6 j m l.P..X>X4XlX&X6.0.s.2.C C 8.5.g._.1.2.C.(.).k = 0 ",
"7 a 5 u m %.L.oX:X3X2X%XE.9.s.2.s s 8.4.g.R.4.n.C.x.p.4 * 9 ",
"* * * ; m X.Z.X.p.7X/.Y.{ M.d.F s y <.6.<.g.*X#XC.q.H 5 O * ",
"2 = * 7 z ' G.L.4./.5XL.D $Xc.D h 4 ,.d.wXpX2X=X/.( f ; O - ",
"O 2 = 6 m ' G.Z.P.h.E.Z.n z.z.P h 6 S } ;.eX2X=X/.r.L ; o + ",
"6 1 = O i ~.-X^.%XI.7.Z.n (.n.X.1 * S D s `.2XP.c.i.{ ; O = ",
"7 7 O o E U.Y...J.5Xx.l.z $XV.n.+.o s J a L P.C.p.H i O o o ",
"* + , O 7 B Q _ J.&X5X*.T @... ...0 y g a d v.K.a.H i - o : ",
"6 = e > O o.O.t.P.&X,Xb.o n.u.[ O | G g u 1 | n.' Z i - O O ",
": O . . o 0 R ' L.$X&Xm.o l.{ c.c % b.y 1 = %.c./ Z u O o O ",
"* O . . o 5 0 U.n.}.$X] O 9 y e.^ O r W * O 0 p./ f 4 o + , ",
"o +     . ; 0 ;.C.}.$X' . ! 5 M G v O v.j O c q.H d 1 o . . ",
": o $ q . ; l T %.L.=X$.+ _ ! 5 k G Q v.t.< Q w.K i = o . o ",
"O O   @ . * 4 z R n.K.R.( e.~ b d u t.m.w.[ x 3.J y * .   . ",
"# .       O 3 k x O.n.P G ^ N v u 4 ) t.M V J D d 2 * .   . ",
"9 w @   . O ; u ^  .$.K G P Q n u 4 ~ E w K P Z i 4 * . . . ",
"> t e   . $ - u K r.X.l 6 x m l ; - w x b P J g i 4 * . . . ",
"$ q &     o * 4 K r.y.b 4 0 O.0 O - n K b H f d u = * . . . ",
"@ $ . . . $ - 4 b ) r.b i b U.l * * v v v G d u 4 * O . . . ",
"# .   @ # e 8 3 v P q.b u v u 3 E 9 k k u g i u 4 * O . . . ",
"# +     . + * - k ^ q.v k b k 4 >.B u m u b v i 6 = * . X $ "
};
