/* XPM */
static char *_000[] = {
/* columns rows colors chars-per-pixel */
"30 30 182 2 ",
"   c #1B1719",
".  c #1E1A1B",
"X  c #221B1D",
"o  c #25201E",
"O  c #261F22",
"+  c #262123",
"@  c #2C2426",
"#  c #2D2629",
"$  c #2E282B",
"%  c #352927",
"&  c #382A26",
"*  c #312729",
"=  c #342A2C",
"-  c #3A2D2D",
";  c #3E312E",
":  c #2D2C33",
">  c #332F32",
",  c #3E3433",
"<  c #3D393C",
"1  c #412E2B",
"2  c #44312E",
"3  c #4B342E",
"4  c #50312E",
"5  c #4D2E33",
"6  c #512F34",
"7  c #443332",
"8  c #4D3534",
"9  c #4D3833",
"0  c #453539",
"q  c #493A38",
"w  c #533333",
"e  c #5C3534",
"r  c #543B34",
"t  c #5B3E36",
"y  c #533C39",
"u  c #5C3D39",
"i  c #65322F",
"p  c #673432",
"a  c #7A3B39",
"s  c #4D4139",
"d  c #54443A",
"f  c #5B413D",
"g  c #65443E",
"h  c #6B443C",
"j  c #64493D",
"k  c #6D4A3E",
"l  c #704034",
"z  c #79483C",
"x  c #4C4545",
"c  c #5A4B42",
"v  c #575254",
"b  c #5C5858",
"n  c #644B40",
"m  c #6E4D41",
"M  c #764E46",
"N  c #685648",
"B  c #725444",
"V  c #795749",
"C  c #615A55",
"Z  c #6C5C55",
"A  c #615B5B",
"S  c #79614E",
"D  c #66605C",
"F  c #7E6751",
"G  c #6D6A6B",
"H  c #776A64",
"J  c #7F7776",
"K  c #7B7878",
"L  c #85433B",
"P  c #8D423D",
"I  c #97403E",
"U  c #8D4D40",
"Y  c #914742",
"T  c #805647",
"R  c #805B4A",
"E  c #8A5E4C",
"W  c #9D5843",
"Q  c #94574C",
"!  c #A25C46",
"~  c #8C624D",
"^  c #90604A",
"/  c #98644E",
"(  c #806651",
")  c #8D6453",
"_  c #876A58",
"`  c #916C55",
"'  c #986B57",
"]  c #976458",
"[  c #9C6758",
"{  c #8C725B",
"}  c #96795E",
"|  c #B16247",
" . c #A36756",
".. c #A16A56",
"X. c #AB755C",
"o. c #B57A5F",
"O. c #BA7B5F",
"+. c #9C7663",
"@. c #857F77",
"#. c #847A7A",
"$. c #AB7360",
"%. c #A37B61",
"&. c #AB7E62",
"*. c #B57A62",
"=. c #B57B63",
"-. c #9D846C",
";. c #9C837B",
":. c #A88567",
">. c #AD856B",
",. c #BF8768",
"<. c #B68868",
"1. c #BC8C6A",
"2. c #B1906F",
"3. c #B08476",
"4. c #BC9572",
"5. c #BD9876",
"6. c #C68263",
"7. c #C88E6B",
"8. c #C59572",
"9. c #C99474",
"0. c #C49A75",
"q. c #CB9A75",
"w. c #C69F7A",
"e. c #D19C75",
"r. c #D39D79",
"t. c #CBA47C",
"y. c #D3A47B",
"u. c #DBA57B",
"i. c #E0A97D",
"p. c #878281",
"a. c #97938E",
"s. c #959294",
"d. c #9D9B9C",
"f. c #A09C9D",
"g. c #BFAA9A",
"h. c #A8A6A5",
"j. c #ACA9A4",
"k. c #A9A7A8",
"l. c #B1ACA7",
"z. c #BBB2AB",
"x. c #B4B2B0",
"c. c #BAB9BB",
"v. c #CBAA8F",
"b. c #D4AB81",
"n. c #DCAD82",
"m. c #DCB285",
"M. c #DFB688",
"N. c #E3AA80",
"B. c #E3B386",
"V. c #E3B689",
"C. c #E5BA8B",
"Z. c #EABD8D",
"A. c #E8BD90",
"S. c #CBBBB8",
"D. c #ECC08F",
"F. c #EDC392",
"G. c #F1C593",
"H. c #F2C895",
"J. c #D9C0A7",
"K. c #DBC7B9",
"L. c #C0BFC0",
"P. c #CAC6C2",
"I. c #D8CCC9",
"U. c #CFCED0",
"Y. c #D8D7D4",
"T. c #D9D8D8",
"R. c #E2CEC8",
"E. c #E5D6CA",
"W. c #E7DDD1",
"Q. c #E6E1DB",
"!. c #E5E4E3",
"~. c #EBE9E6",
"^. c #F2EEEB",
"/. c #F3F3F3",
"(. c #F4F3F3",
"). c #F7F7F6",
"_. c #F8F6F4",
"`. c #FAF9F7",
"'. c #F7F7F8",
"]. c #FAF9F9",
"[. c #FCFCFD",
"{. c white",
/* pixels */
"{.{.{.{.{.{.{.{.].U.c.s.v = $ $ = A A d.!.{.{.{.{.{.{.{.{.{.",
"{.{.{.{.{.{.{.].d.< > $ # # # # # # $ = v x._.{.{.{.{.{.{.{.",
"{.{.{.{.{.{.L.G > # # # # # # # # # # # @ = p.).{.{.{.{.{.{.",
"{.{.{.{.{.d.> = # # # # # # # # # # # # # @ $ h.{.{.{.{.{.{.",
"{.{.{.{.c.$ @ , # # # # # # # # # # # # # # * x P.{.{.{.{.{.",
"{.{.{.(.G . = y 0 , = # = = = = = # # * = q y y H ~.{.{.{.{.",
"{.{.{.(.K . 7 9 f y - = 7 7 7 7 - # # - - 7 y 9 7 z.{.{.{.{.",
"{.{.{.'.b     X @ # # # * * # * * # # * = @ @ * * j.{.{.{.{.",
"{.{.{.c.>       + + + + # @ @ # # & r @ @ @ @ @ @ a.{.{.{.{.",
"{.{.).f.@ .   O @ X X * = O * # 7 j %.- * @ @ @ @ G `.{.{.{.",
"{.{.{.h.@   . # @   & k % 7 t y ` 4.V.V m = @ @ @ C ^.{.{.{.",
"{.{.{.P.b   + y t 1 ' j j <.B <.b.F.F.0.1.R 2 # $ @.`.{.{.{.",
"{.{.{.{.s.. ; ..E &.4.) n.t.:.Z.F.F.G.Z.C.q.~ - , P.{.{.{.{.",
"{.{.{.{.Y.x 3 o.q.Z.b.B.F.n.C.F.F.F.G.G.G.B.4.; D _.{.{.{.{.",
"{.{.{.{.].#.3 ,.Z.F.F.F.F.Z.Z.M.F.G.G.G.D.Z.t.d -.W.{.{.{.{.",
"{.{.{.{.I.] k X.%.{ 2.w.t.m.m.y.m.t.4.} ` 4.0.S <.g.{.{.{.{.",
"{.{.{.{.S...m T h 4 w t _ _ w.>.B z r l ) >._ B 8.J.{.{.{.{.",
"{.{.{.{.R.*.g t e U ! W ] M 8.<.L W W | Q [ ( k 1.E.{.{.{.{.",
"{.{.{.{.^.3.M ~ Q a z P L X.n.V. .L L L L ,.:.^ v._.{.{.{.{.",
"{.{.{.{.{.R.+.E 8.$. .*.9.q.B.F.V.9.*.*.q.m._ 5.Q.{.{.{.{.{.",
"{.{.{.{.{.{.K.V &.A.F.F.Z.7.V.F.F.H.H.H.G.4.{ K.{.{.{.{.{.{.",
"{.{.{.{.{.{._.;.V r.F.H.r.O.B.Z.y.Z.H.H.C.+.z.].{.{.{.{.{.{.",
"{.{.{.{.{.{.{.!.Z o.Z.F.n.6.e.y.B.Z.H.G.V._ Q.{.{.{.{.{.{.{.",
"{.{.{.{.{.{.{.{.p./ B.H.H.N.6.u.H.G.D.H.b.Z ~.{.{.{.{.{.{.{.",
"{.{.{.{.{.{.{./.J z i.G.F.Z.B.Z.Z.F.V.G.:.c l.].{.{.{.{.{.{.",
"{.{.{.{.{.{./.#.f 9 1.G.F.Z.V.V.Z.Z.B.C.N n g j.{.{.{.{.{.{.",
"{.{.{.{.{.{.k.% u & B C.G.Z.7.u.G.H.G.:., h i b (.{.{.{.{.{.",
"{.{.{.{.{.].G @ w t & F b.C.w.t.Z.m.} 7 9 Y i , Y.{.{.{.{.{.",
"{.{.{.{.{.T.< % 6 u r @ s n , 7 N c = 8 a I p > h.{.{.{.{.{.",
"{.{.{.{.{.k.o @ 5 w 8 2 = + $ $ # * e P I a 0 : K {.{.{.{.{."
};
