/* XPM */
static char *_002[] = {
/* columns rows colors chars-per-pixel */
"30 24 109 2 ",
"   c #99DC82",
".  c #9ADB82",
"X  c #9ADC83",
"o  c #97DB80",
"O  c #98DB81",
"+  c #99DB82",
"@  c #99DB81",
"#  c #9BDC83",
"$  c #96DB80",
"%  c #95DA7E",
"&  c #97DB81",
"*  c #95DA7F",
"=  c #97DA80",
"-  c #96DA7F",
";  c #98DB82",
":  c #9ADC82",
">  c #9BDC84",
",  c #92DA7C",
"<  c #90D97A",
"1  c #91D97A",
"2  c #92D97B",
"3  c #94DA7E",
"4  c #94D97D",
"5  c #91D97B",
"6  c #8FD979",
"7  c #93D97C",
"8  c #93DA7D",
"9  c #92D97A",
"0  c #88D973",
"q  c #87D871",
"w  c #86D870",
"e  c #88D972",
"r  c #8AD974",
"t  c #8BD975",
"y  c #8CD976",
"u  c #86D871",
"i  c #89D973",
"p  c #89D974",
"a  c #82D76E",
"s  c #81D66C",
"d  c #82D66D",
"f  c #83D76E",
"g  c #82D66E",
"h  c #83D66E",
"j  c #85D870",
"k  c #84D76F",
"l  c #85D76F",
"z  c #8AD875",
"x  c #8BD875",
"c  c #88D773",
"v  c #85D770",
"b  c #83D56D",
"n  c #83D66D",
"m  c #88D772",
"M  c #87D772",
"N  c #84D66F",
"B  c #86D770",
"V  c #82D56D",
"C  c #84D66E",
"Z  c #97DB7F",
"A  c #96DB7F",
"S  c #95DA7D",
"D  c #98DB80",
"F  c #97DA7F",
"G  c #96DA80",
"H  c #96DA7E",
"J  c #96D97E",
"K  c #8DD977",
"L  c #8CD876",
"P  c #8FD978",
"I  c #91DA7B",
"U  c #93DB7C",
"Y  c #8AD874",
"T  c #8ED977",
"R  c #8FDA79",
"E  c #91DA7A",
"W  c #93DB7D",
"Q  c #8CD977",
"!  c #81D56C",
"~  c #81D66D",
"^  c #84D76E",
"/  c #80D56B",
"(  c #87D972",
")  c #8FD97A",
"_  c #8DD877",
"`  c #89D874",
"'  c #87D671",
"]  c #89D773",
"[  c #8BD876",
"{  c #8AD773",
"}  c #8CD775",
"|  c #89D772",
" . c #89D873",
".. c #8ED878",
"X. c #8AD774",
"o. c #94D97E",
"O. c #94DA7D",
"+. c #95D97E",
"@. c #94D97C",
"#. c #88D872",
"$. c #8FDA78",
"%. c #87D872",
"&. c #8EDA78",
"*. c #92DB7B",
"=. c #8BD976",
"-. c #88D873",
";. c #83D76F",
":. c #82D66C",
">. c white",
/* pixels */
"    . X o X O O O   . X O + @ + o     + # o X O O O   . X O ",
"$ o % & O & * o O $ = % O O o * O o o % o O & - o O $ o % ; ",
"# X X + + # : + X X X X O # X : + > X X   + # : + X X X X O ",
", < < 1 2 3 4 % % < 5 6 1 7 % 4 - 8 < < 1 2 3 4 % * < 5 6 9 ",
"0 q q w e r t y t e q u q i t y y p q q w e r t y t e q u w ",
"a a s d d f s s d a g d d h d s s f a s d d f s s d a g s d ",
"w j k f q q j l q w j f j q w k w u j l f q q j k q w j f k ",
"z x c v b v n h m z z M b k N n N z x c B V v n h m z x M C ",
"  X o Z o A S o X   X - D A % %     X O F o A S Z :   X - D ",
"o G H O - O H - G $ F = = & = - % & G H O - ; % - - $ F F o ",
"+ : D ; >   O   X   + o X X   O #     O O >   +   #     o X ",
"; o O O H + o - O O O O H O O o - + o O O J + = G & O O O - ",
"K y x L P I , % U y y Y T 6 , 7 A R y x x P E , % W Q y Y K ",
"u j j k k q w v u j v j f w u u v u j j l k q w v u w l j f ",
"a f ! d k f ~ d f a f ! ^ f n s f f f ! d k f d d ^ a f / f ",
"q u w f l q l f u q u l h q w k ^ ( u w f k q l f w q u j d ",
") I _ x m ` ' ] P < < [ { ] m ' } ) I _ x |  .' ] ..< 5 [ X.",
"X # . :   X @ : X X # . : : + + : # # . :   X @ : X X # . : ",
"- - 4 o - o o.* G * H o.o o - 3 - $ - 4 o - & o.* G * - 4 o ",
"# # X   # > X X > # #   X > # X X > # X   # > X X > # #     ",
"% 8 8 O.7 G +.% - 8 O.O.7 % - +.% * 8 8 O.7 - % % - O.O.8 @.",
"r i #.#.t K R I $.p i %.p y &.R *.=.i -.%.t K $.E R p i %.i ",
"k f h f d k d s f ;.f f d f f d s k f h f d k d s f ;.f f :.",
"k k d h u k f l w k k ! w j k f w l k d n u l f k w k k ! j "
};
