/* XPM */
static char *_000[] = {
/* columns rows colors chars-per-pixel */
"30 30 206 2 ",
"   c #1D1617",
".  c #121D17",
"X  c #1B1618",
"o  c #131F19",
"O  c #1C1E1C",
"+  c #221414",
"@  c #271A17",
"#  c #23151B",
"$  c #2A1519",
"%  c #241D1C",
"&  c #2B1A1B",
"*  c #311C1F",
"=  c #16221B",
"-  c #18241D",
";  c #272019",
":  c #392017",
">  c #1F1720",
",  c #1E1C25",
"<  c #251C25",
"1  c #2B1C22",
"2  c #231E2B",
"3  c #291E2B",
"4  c #361C24",
"5  c #152423",
"6  c #1B2622",
"7  c #1C2A24",
"8  c #1B2629",
"9  c #1B2D2B",
"0  c #1D302D",
"q  c #1B2F31",
"w  c #1D3434",
"e  c #1E3837",
"r  c #1E3A3B",
"t  c #252327",
"y  c #2E2125",
"u  c #222E25",
"i  c #2F2925",
"p  c #23212C",
"a  c #2A242B",
"s  c #212F29",
"d  c #282C2D",
"f  c #3C2124",
"g  c #3A282C",
"h  c #253525",
"j  c #22332C",
"k  c #2B322C",
"l  c #2C382D",
"z  c #262231",
"x  c #2A2234",
"c  c #232B34",
"v  c #2C263A",
"b  c #2D2B3D",
"n  c #352636",
"m  c #32273D",
"M  c #332D3E",
"N  c #3D2E3C",
"B  c #263632",
"V  c #293532",
"C  c #273A33",
"Z  c #293B34",
"A  c #23353B",
"S  c #2E303E",
"D  c #213C3D",
"F  c #2C3C39",
"G  c #33343C",
"H  c #3C333C",
"J  c #323839",
"K  c #482718",
"L  c #44382B",
"P  c #422C39",
"I  c #473B3E",
"U  c #2C432F",
"Y  c #35442C",
"T  c #314E2E",
"R  c #35592F",
"E  c #2E4330",
"W  c #2F403F",
"Q  c #314735",
"!  c #384B3A",
"~  c #355632",
"^  c #375833",
"/  c #3A5D35",
"(  c #3A6433",
")  c #3F6A36",
"_  c #1E3D43",
"`  c #332B44",
"'  c #362E49",
"]  c #392E4A",
"[  c #213E42",
"{  c #2B3C45",
"}  c #2B3A49",
"|  c #353243",
" . c #3A3C46",
".. c #36334B",
"X. c #3B314D",
"o. c #323D4C",
"O. c #3A3250",
"+. c #3A3B51",
"@. c #42334D",
"#. c #533448",
"$. c #423A54",
"%. c #463959",
"&. c #443B5C",
"*. c #4B3F64",
"=. c #214145",
"-. c #23434B",
";. c #29434C",
":. c #2E4B4F",
">. c #374543",
",. c #3D5146",
"<. c #274650",
"1. c #2A4653",
"2. c #324E52",
"3. c #354859",
"4. c #3B585E",
"5. c #3E4D64",
"6. c #455749",
"7. c #49445A",
"8. c #496849",
"9. c #4A7542",
"0. c #4D754C",
"q. c #556A5E",
"w. c #527555",
"e. c #4B4164",
"r. c #464865",
"t. c #4C4B63",
"y. c #4E4B6E",
"u. c #524B66",
"i. c #52456C",
"p. c #415667",
"a. c #545F62",
"s. c #4D4D70",
"d. c #514B71",
"f. c #5C4B74",
"g. c #5D4E79",
"h. c #455773",
"j. c #4A5A7A",
"k. c #525671",
"l. c #5A557C",
"z. c #624D75",
"x. c #64517F",
"c. c #68527F",
"v. c #526D71",
"b. c #596F73",
"n. c #5D627E",
"m. c #5A7175",
"M. c #61716A",
"N. c #66767B",
"B. c #508347",
"V. c #57914D",
"C. c #59944E",
"Z. c #5E9556",
"A. c #60995A",
"S. c #65A559",
"D. c #67AD59",
"F. c #6EB95F",
"G. c #71827E",
"H. c #70A96D",
"J. c #71BC63",
"K. c #5E5681",
"L. c #565B82",
"P. c #5D5C85",
"I. c #645582",
"U. c #665886",
"Y. c #635B8A",
"T. c #6B5B8D",
"R. c #705583",
"E. c #74598B",
"W. c #685F90",
"Q. c #745E94",
"!. c #5A6188",
"~. c #6C6D87",
"^. c #67608F",
"/. c #67688B",
"(. c #6D768C",
"). c #727E85",
"_. c #6C6396",
"`. c #636998",
"'. c #6D6B9F",
"]. c #736196",
"[. c #756F91",
"{. c #76629A",
"}. c #79649C",
"|. c #726A9F",
" X c #7A67A1",
".X c #736DA5",
"XX c #7B6AA5",
"oX c #7C6CA7",
"OX c #6F71A4",
"+X c #7070A6",
"@X c #7673AB",
"#X c #7A72AC",
"$X c #7D76B2",
"%X c #7C78B3",
"&X c #826EA9",
"*X c #8374AB",
"=X c #8476B3",
"-X c #8B73B1",
";X c #8079B5",
":X c #827BB9",
">X c #907DBD",
",X c #8684A9",
"<X c #8890A8",
"1X c #8A88B3",
"2X c #9A86C9",
"3X c #A391D5",
/* pixels */
"-.=.=.=.=.=.=.=.=.-.-.<.<.1.h.j.1.-.<.-.-.-.-.-.=.=.4.v.b.v.",
"=.r _ [ [ _ _ _ [ [ =.-.-.j.`.OXj.1.-.=.[ _ _ _ _ _ p.N.m.b.",
"D r [ =.=.[ =.[ =.=.-.} p.@X+X%X%Xh.;.-.=.=.=.[ [ =.:.:.2.b.",
"r D D =.=.[ [ [ [ [ [ 3.'.:X.X#X:XOX3.-.-.=.=.=.=.=.[ r =.2.",
"r D D =.[ [ [ [ [ [ ;.L.$X;X'.@X;X%X!.;.[ [ [ [ [ [ r r r r ",
"D D r D D D [ [ [ [ 5..X$X.XY._.@X$X@X5.[ [ D r r r r r r r ",
"D r r D D D D D [ { P.#X_.s.k.n.l.|.#XP.;.[ D D D D r r r r ",
"D r r D D D D D [ o.^.Y.y.Y./.1X*Xd._.|.3.[ D D D r r r r r ",
"D D r r D D r D D o.d.r.W.oX(.1X3XP.y.^.3.D D D r r r r r r ",
"e r e r r r r D D o.r._.oXoX(.<X2XoX_.K.r.D D e e e e e e e ",
"w e w e r e r D A +.l.oXoXXX~.,X>XoXXXT.l.{ A e e e e w e w ",
"9 0 9 9 q q w q A ..g.XXXX}.l.*X=XXXXXT.K.{ w w 9 9 9 9 9 9 ",
"7 5 5 7 5 5 8 5 c ..&.U. XY.i.*X&XXXXX].T.| 8 8 5 5 5 5 5 5 ",
"C j 0 C 9 j C 8 b ..O.&.Y.d.e. XXX X X X{.7.B F 9 j B 9 B j ",
"F B B F j Z F c ` ' X.O.&.&.*.{.}.{. X X}.I.o.W B C F j F C ",
"F j j F j C F S ' ` ` ' ] O.*.}.{.E.].T.].{.t.>.B C F j F C ",
"C j j Z j C F ` ` v p x ` X.e.XX}.R.e.%.T.{.U.>.B C C j C B ",
"C j j C j B G ` ` v 6 d ` X.i.&X}.z.G | T.Q.Q.t.V B C s B j ",
"B j j C j V ` ` ` v , k b X.I.-X{.u.J X.Q.T.{.I.F B B 9 j j ",
"j j j C j b ` ` ` ` , u d X.].-Xf. .k &.{.T.{.Q.+.B B 7 j j ",
"s 7 s j B M |  .| ` 2 O t ` f.g.$.G M z.E.~.[.].t.F j 7 7 7 ",
"7 6 7 j Q W ! / G m m x v ` X.%.x.U.c.E.E.G.H.).a.,.j 7 7 6 ",
"o = - u / / ~ T G ` m ` ' *.X.e.Q.{.Q.E.Q.N.A.H.Z.w.u = . . ",
"= 7 s U ) R T T V m m ` ` g.T.Q.E.Q.{.Q.E.M.Z.Z.V.S.Q 7 = o ",
"7 j l / ) ~ h ; % x x x x ` g.f.X.$.i.x.z.H Y 9.B.J.0.s - - ",
"7 j E ( ( ! % + + # > , 2 z v v z 2 x n n 1 ; l 0.F.A.U - - ",
"7 j T ( / 7.g @ + + X , 2 x | ..x 2 2 1 & & * H w.D.D.~ - - ",
"6 s E R ^ u.@.& $ @ X 2 p z +.k.b z 2 $ $ & y 7.q.S.C.U - = ",
"- s  .,.Q | v 3 <   ; < 2 p | k...p t @ # 3 a M 6.V.8.j - = ",
"% a #.H i f < 4 * + K * < 4 < N P < f : + 4 1 y L ! I g O & "
};
