/* XPM */
static char *_001[] = {
/* columns rows colors chars-per-pixel */
"30 24 158 2 ",
"   c None",
".  c #15140F",
"X  c #1F1D0E",
"o  c #0B161A",
"O  c #161411",
"+  c #161610",
"@  c #141516",
"#  c #1E1C10",
"$  c #191816",
"%  c #1E1E1E",
"&  c #251510",
"*  c #221C17",
"=  c #2B1812",
"-  c #2B1D11",
";  c #2E1A14",
":  c #2E1C15",
">  c #241C18",
",  c #321B14",
"<  c #1F241D",
"1  c #2E2110",
"2  c #2B2715",
"3  c #28271A",
"4  c #041C25",
"5  c #05222B",
"6  c #04232D",
"7  c #09232B",
"8  c #09242C",
"9  c #0B262E",
"0  c #1C2E2F",
"q  c #002936",
"w  c #012936",
"e  c #002937",
"r  c #002A37",
"t  c #032A36",
"y  c #032A37",
"u  c #052B36",
"i  c #0F2E36",
"p  c #0E2F37",
"a  c #012C3A",
"s  c #042C38",
"d  c #042D39",
"f  c #152C30",
"g  c #132F34",
"h  c #153035",
"j  c #1D3537",
"k  c #1F3536",
"l  c #202724",
"z  c #212824",
"x  c #2B2822",
"c  c #2B2926",
"v  c #282E24",
"b  c #252D29",
"n  c #252E2A",
"m  c #262F2A",
"M  c #2B2E28",
"N  c #322F27",
"B  c #26302B",
"V  c #25302C",
"C  c #27312C",
"Z  c #27322C",
"A  c #29322C",
"S  c #28322D",
"D  c #2A322C",
"F  c #29352F",
"G  c #2A362F",
"H  c #383027",
"J  c #35312B",
"K  c #37352B",
"L  c #3F3C2A",
"P  c #253633",
"I  c #233535",
"U  c #2A3731",
"Y  c #2B3731",
"T  c #283632",
"R  c #273935",
"E  c #2A3832",
"W  c #2B3832",
"Q  c #2B3932",
"!  c #2C3932",
"~  c #2D3932",
"^  c #2D3833",
"/  c #2C3933",
"(  c #2D3A33",
")  c #2B3A35",
"_  c #2C3A34",
"`  c #2D3A34",
"'  c #2D3B34",
"]  c #2E3B35",
"[  c #2E3C36",
"{  c #243B3A",
"}  c #413E29",
"|  c #2E403E",
" . c #35423C",
".. c #52422F",
"X. c #56442E",
"o. c #464236",
"O. c #434A3F",
"+. c #545137",
"@. c #54513C",
"#. c #59563A",
"$. c #5C583C",
"%. c #5D583C",
"&. c #674824",
"*. c #714F26",
"=. c #755126",
"-. c #75552D",
";. c #78562D",
":. c #665436",
">. c #605D3E",
",. c #765835",
"<. c #7E5930",
"1. c #64613E",
"2. c #3D4944",
"3. c #504D41",
"4. c #5A5A49",
"5. c #5A5F50",
"6. c #625E40",
"7. c #625C4B",
"8. c #676342",
"9. c #666245",
"0. c #626556",
"q. c #6A6754",
"w. c #7D7661",
"e. c #825928",
"r. c #876236",
"t. c #9B6E38",
"y. c #986D3B",
"u. c #986F3D",
"i. c #A0713A",
"p. c #A4763F",
"a. c #B47D3A",
"s. c #817C51",
"d. c #827D51",
"f. c #AF7C43",
"g. c #868054",
"h. c #8D8655",
"j. c #8D8656",
"k. c #8E8757",
"l. c #918B59",
"z. c #948D5B",
"x. c #978F5A",
"c. c #B78246",
"v. c #BD8546",
"b. c #8D8872",
"n. c #C38946",
"m. c #CA8D49",
"M. c #CA914A",
"N. c #D19249",
"B. c #D0924B",
"V. c #D9974C",
"C. c #DA994E",
"Z. c #E7A151",
"A. c #E7A152",
"S. c #E5A252",
"D. c #F2AA54",
"F. c #A39B80",
"G. c #AEA588",
"H. c #C6B999",
/* pixels */
"                                                            ",
"                                                            ",
"                                +.#.6.>.                    ",
"                          8.d.j.l.x.d.$.L                   ",
"                          j.x.j.1.} 3 .                     ",
"                        $.g.9.:.;.&.*.1                     ",
"                          K J c.S.n.S.=.                    ",
"                        @ X.t.t.B.m.V.e.                    ",
"                        % ..B.i.r.f.v.<.+                   ",
"                        $ c p.D.u.,.-.H * -                 ",
"                        o 9 @.M.S.C.a.                      ",
"                      5 y y y T { S                         ",
"                    6 u y y p j a f                         ",
"                    y g h s j ) R ]                         ",
"                    9 s 2. .[ Q Q T                         ",
"                    V | b.F.5.Q Q P 7                       ",
"                    F O.G.H.4.F / 0 y p 3.                  ",
"                    b ] 0.q.2 X <   4 I w.7.o.              ",
"                      S / ] v # +         N                 ",
"                      z Q Q / Q b                           ",
"                        T / b / T                           ",
"                      l / ]   B ] V                         ",
"                    & x / V     S M                         ",
"                    = , >       : ;                         "
};
