/* XPM */
static char *_001[] = {
/* columns rows colors chars-per-pixel */
"30 30 49 1 ",
"  c #020000",
". c #0B0000",
"X c #130101",
"o c #1B0201",
"O c #230202",
"+ c #2B0402",
"@ c #320503",
"# c #3A0604",
"$ c #350805",
"% c #3C0906",
"& c #430906",
"* c #4C0A06",
"= c #470C09",
"- c #4C0C08",
"; c #530B06",
": c #590D07",
"> c #540D09",
", c #5A0E09",
"< c #5C0F0A",
"1 c #5D100B",
"2 c #5F100B",
"3 c #610F09",
"4 c #61100A",
"5 c #65100B",
"6 c #66110C",
"7 c #69110B",
"8 c #6C120B",
"9 c #69120D",
"0 c #6F130C",
"q c #6E130D",
"w c #70130C",
"e c #73140D",
"r c #76150D",
"t c #7B160E",
"y c #7F170F",
"u c #7E1710",
"i c #80170F",
"p c #80180F",
"a c #85190F",
"s c #821810",
"d c #851910",
"f c #891A11",
"g c #8E1B12",
"h c #8F1C12",
"j c #931D13",
"k c #961D13",
"l c #961D14",
"z c #991E14",
"x c #9C1F15",
/* pixels */
"      ..XXXXXXXXXXXXX..       ",
"    ...XXO++OooooooooXX..     ",
"   ..XXo$1---&++++@%>$XX...   ",
" ..XXoOO,9&##*,*><,>1@OooX..  ",
"..XXoO++#><44;*e7<><*@+OOoX.. ",
".X+&&*>>,ude0yse7es0,>>-*&%o..",
".X%,,<4570eryygd00s0754<,>>O..",
".XO>>&***;8eerjpy:55***&&<&oX.",
".XO&5;*;:w780egtdr35<;;*,4@oX.",
".XO&rydfdtt3;:4<;;8eysddy6@oX.",
".X+04ekkrts;;;;***<f8dlg40>oX.",
".XO#,dkksy:3edd77t;7yhjle;@oX.",
".XO#,ykkdt;0dfftdt;4pgkk0*@oX.",
".X+05rzzyyy5reeer5<drgxk7e>oX.",
".XO&3thxdi4;;;****;egjzje,#oX.",
".Xo+*7tjtt:3<:,::<:8gajy4&+oX.",
".XO1<ejktpt40reee55gyjzk79-oX.",
" .o=>efgiry<7eeer57fpjkj04%o..",
" .Xo+&;>7445:,<<<3wreft0>#Oo. ",
" ..oO+#*3t5e3;<;:7egefgf4,$X. ",
"  .Xo+>1,,,7sr0808es0yfs>,%X. ",
"  ..X&1&&*45,,,4074<*>>-$OX.  ",
"   .X=@OO+#905sdrr1$++OOoX..  ",
"    .XXXoO+*4*5;,5#+OooXX..   ",
"     ...XoO@1>4>4*+OoX...     ",
"       ..XoO&494<@OX...       ",
"         .Xo+>06&OoX.         ",
"         ..Xo$>>OoX.          ",
"          ..Xo-$oX.           ",
"           ..XoXX..           "
};
