/* XPM */
static char *_001[] = {
/* columns rows colors chars-per-pixel */
"30 30 183 2 ",
"   c #0D1618",
".  c #11191C",
"X  c #111D21",
"o  c #162324",
"O  c #182626",
"+  c #1C2329",
"@  c #1D2D2D",
"#  c #21252D",
"$  c #26282E",
"%  c #20302E",
"&  c #252931",
"*  c #2C2D33",
"=  c #273534",
"-  c #2F3038",
";  c #2C3939",
":  c #343337",
">  c #33343A",
",  c #3A373E",
"<  c #353C3E",
"1  c #3B3A3D",
"2  c #413E3D",
"3  c #36403D",
"4  c #27394C",
"5  c #3A3742",
"6  c #3D3B44",
"7  c #3F3D48",
"8  c #433F46",
"9  c #423E49",
"0  c #3F4B4D",
"q  c #344050",
"w  c #3D4353",
"e  c #444145",
"r  c #4B4644",
"t  c #44424C",
"y  c #49464F",
"u  c #4C4B4B",
"i  c #514D46",
"p  c #524D4B",
"a  c #55514E",
"s  c #58524E",
"d  c #454650",
"f  c #494550",
"g  c #464953",
"h  c #4A4B55",
"j  c #4B4E59",
"k  c #534E53",
"l  c #524F59",
"z  c #4C5555",
"x  c #5B5454",
"c  c #5A5A52",
"v  c #55525B",
"b  c #5B545B",
"n  c #695F54",
"m  c #63575C",
"M  c #645C5B",
"N  c #685D5A",
"B  c #6B6358",
"V  c #71665D",
"C  c #7D6D5D",
"Z  c #575763",
"A  c #605A62",
"S  c #695D61",
"D  c #6D5F60",
"F  c #5E6568",
"G  c #636464",
"H  c #6C6264",
"J  c #646A6F",
"K  c #726364",
"L  c #736A62",
"P  c #7A6E63",
"I  c #776D6A",
"U  c #796A69",
"Y  c #7E7166",
"T  c #75726B",
"R  c #7F766B",
"E  c #676B72",
"W  c #6C7375",
"Q  c #6F767A",
"!  c #71757D",
"~  c #797B7C",
"^  c #806F5F",
"/  c #81705F",
"(  c #837365",
")  c #8A7767",
"_  c #84766B",
"`  c #8C7C6C",
"'  c #867D73",
"]  c #94806E",
"[  c #8D847D",
"{  c #918172",
"}  c #9A8775",
"|  c #9C8976",
" . c #91827B",
".. c #9C8B7C",
"X. c #A18B76",
"o. c #A48E7C",
"O. c #AA937D",
"+. c #B0947A",
"@. c #777E82",
"#. c #7A7F84",
"$. c #7B8184",
"%. c #7F848A",
"&. c #808182",
"*. c #81868B",
"=. c #848A8E",
"-. c #968B84",
";. c #998D85",
":. c #96918C",
">. c #8C9296",
",. c #999897",
"<. c #969B9F",
"1. c #A28F81",
"2. c #A59382",
"3. c #AB9685",
"4. c #AA9888",
"5. c #AE9A89",
"6. c #B59A83",
"7. c #B29B85",
"8. c #B39E8C",
"9. c #A19F9D",
"0. c #BCA085",
"q. c #BDA38D",
"w. c #BBA592",
"e. c #BFAD9C",
"r. c #9B9FA5",
"t. c #9CA2A4",
"y. c #AEA7A0",
"u. c #A4A9AB",
"i. c #B6ADA5",
"p. c #B3B0AD",
"a. c #A9AFB2",
"s. c #ADB1B3",
"d. c #AFB4B8",
"f. c #B4B8BA",
"g. c #C2A68D",
"h. c #C5AB94",
"j. c #CCAE93",
"k. c #C2AD9A",
"l. c #C8B097",
"z. c #CEB39C",
"x. c #D1B297",
"c. c #D2B59D",
"v. c #D9B69B",
"b. c #D5B89F",
"n. c #D9B99E",
"m. c #CFB7A1",
"M. c #D2B7A1",
"N. c #D6BAA2",
"B. c #DBBDA4",
"V. c #C3BAB3",
"C. c #E1BFA4",
"Z. c #DCC0A5",
"A. c #DDC1A9",
"S. c #D5C5B7",
"D. c #E2C1A5",
"F. c #E4C5AB",
"G. c #E9C6AB",
"H. c #E6C8AE",
"J. c #ECCAAD",
"K. c #E4CCB7",
"L. c #EDCBB0",
"P. c #E7D2BE",
"I. c #ECD1BC",
"U. c #BABFC1",
"Y. c #BEC3C6",
"T. c #C5C7C7",
"R. c #C6C9CB",
"E. c #C9CDCE",
"W. c #DCD1C4",
"Q. c #CBCFD1",
"!. c #CED2D4",
"~. c #D3D6D6",
"^. c #D3D7D8",
"/. c #D5DADB",
"(. c #DADDDE",
"). c #E4D5C9",
"_. c #DADEE1",
"`. c #DDE1E3",
"'. c #E2E4E6",
"]. c #E5E7E8",
"[. c #E6E9EB",
"{. c #EBECEE",
"}. c #ECEDF0",
/* pixels */
"g j j Z H b A v j j j j j j j j j j j j j j v v v j j h g 4 ",
"h h h l v K U H b l h h h h h h j h h h j b S H v h h h h q ",
"g g h g v K K H b l l v v h g h b v l v S M K U b g g g g w ",
"t t d t h b h h h m D K b f f f M S K b l b M b b f t t t d ",
"t t t t t t t t f b x k f t t t h k m b t t h t y t t t t t ",
"9 9 9 9 t 9 9 9 t t 9 t t h y t 9 t t t 9 9 9 9 9 9 9 9 9 9 ",
"9 9 9 9 6 7 6 7 9 t t 9 9 I M 9 9 8 t 9 5 6 9 9 9 9 9 9 9 7 ",
"6 6 6 6 5 5 > 6 6 k u e u 8. .6 9 e p e u e 6 6 6 6 6 5 6 5 ",
"> 1 6 5 > , 1 6 8 I x x L N.k.p e a x k u x , , 1 6 5 : > * ",
"* > > > - 6 u 1 a 5.N _ 1.H.F. .p L L L k P 6 : : 1 - > & # ",
"$ * : * : p P r P M.L 3.z.L.L.B._ { 7.2.V 2.p 1 1 : & * # + ",
"+ $ * : p P 8.N 2.F...z.J.L.H.F.h.3.F.N.3.z.L s a 2 $ & + + ",
"+ # * i Y } q._ 8.B.z.J.L.L.L.B.F.F.F.N.w.4._ ) } P 1 * e & ",
"u 2 1 Y h.b.B.{ a x Y 8.c.D.L.N.c.o.P p : N 4.Z.F.c.n P 2.M ",
"L n i ` J.F.4.G & J T P o.D.L.H.h.( ' W # E ,.w.H.B.` o.7.R ",
"P ( V { F.c.i.d.w ! W.N.c.Z.J.L.D.c.K.T.Z ! ~.e.D.h.( ` j.T ",
"r } _ { N.J.I.).,.i.I.L.L.J.J.L.L.L.L.P.i.V.).j.x.h.` o.q.1 ",
". i 3.] q.L.L.J.F.F.L.L.L.L.L.J.L.L.L.J.F.F.n.+.x.j.q.h.i   ",
"o O a } o.H.L.L.L.L.L.J.L.L.L.J.L.L.L.L.L.L.C.0.b.B.l.c o X ",
"@ @ @ u P b.J.J.J.J.J.J.J.F.B.J.J.J.J.J.J.J.C.n.A.k.c @ @ @ ",
"@ % = ; 3 2.J.J.J.J.J.J.J.7.7.J.J.J.J.J.J.J.G.G.S.s.g 0 ; @ ",
"; < z W F [ F.J.J.J.J.J.J.| X.D.J.J.J.J.J.J.J.A.p.!.u.T.t.z ",
"J ! #.@.Q &.k.F.F.J.J.J.J.D.n.F.J.J.J.J.J.J.J.3.,._.u.<.Q.T.",
"*.*.$.$.! $.:.h.j.D.J.J.b.q.h.h.q.z.J.J.G.D.x.B >.`.R.>.a.{.",
"<.*.%.#.#.=.=.[ 6.v.G.J.h.;.-. .[ 5.G.G.v.j.O.L a.[.!.f.t.].",
"R.s.>.#.<.R.r.G ) j.G.J.G.F.N.m.A.F.J.D.l.j.7.~ E.{.^.E.t./.",
"`.[.Y.=.R.}.f.H C ) g.G.J.J.B.n.G.J.J.C.n.D.5.,.].{.(.^.d.!.",
"[.{.!.t.(.}.!.R C C ( 7.D.J.J.J.J.H.B.D.G.D.;.T.{.{.].(.T.!.",
"~.].^.f.'.{.'.-.C C C ^ } c.G.G.D.n.D.G.J.q.9.].{.{.{.`./.^.",
"U.(.(.!.[.{.{.y.C ^ ^ ^ / ] q.h.g.j.G.G.D...T.{.{.{.{.`.`.`."
};
