/* XPM */
static char *_000[] = {
/* columns rows colors chars-per-pixel */
"30 30 145 2 ",
"   c black",
".  c #010000",
"X  c #070202",
"o  c #070201",
"O  c #020000",
"+  c #2F0C0A",
"@  c #210807",
"#  c #1C0706",
"$  c #1F0706",
"%  c #1A0605",
"&  c #0A0302",
"*  c #0E0303",
"=  c #1B0606",
"-  c #200806",
";  c #170605",
":  c #3F100D",
">  c #140504",
",  c #030101",
"<  c #0B0302",
"1  c #180605",
"2  c #0B0303",
"3  c #1B0706",
"4  c #250908",
"5  c #160504",
"6  c #060101",
"7  c #1F0807",
"8  c #100404",
"9  c #1F0806",
"0  c #2D0B0A",
"q  c #1D0706",
"w  c #150605",
"e  c #080202",
"r  c #130504",
"t  c #150504",
"y  c #140403",
"u  c #2C0B09",
"i  c #3D0F0D",
"p  c #2D0B09",
"a  c #1B0705",
"s  c #2A0A09",
"d  c #320D0A",
"f  c #290B09",
"g  c #280A09",
"h  c #380E0B",
"j  c #2A0A08",
"k  c #170504",
"l  c #090202",
"z  c #0F0403",
"x  c #230908",
"c  c #280908",
"v  c #290908",
"b  c #2B0A09",
"n  c #2E0B0A",
"m  c #370E0C",
"M  c #2B0B09",
"N  c #190605",
"B  c #290A08",
"V  c #200807",
"C  c #100403",
"Z  c #240908",
"A  c #060201",
"S  c #380E0C",
"D  c #330D0B",
"F  c #0A0202",
"G  c #220807",
"H  c #0D0303",
"J  c #1A0606",
"K  c #020101",
"L  c #300C0A",
"P  c #310D0B",
"I  c #320C0B",
"U  c #340D0B",
"Y  c #050101",
"T  c #040101",
"R  c #310C0B",
"E  c #310C0A",
"W  c #270A08",
"Q  c #110404",
"!  c #020100",
"~  c #290A09",
"^  c #350D0B",
"/  c #240907",
"(  c #2E0C0A",
")  c #230907",
"_  c #320C0A",
"`  c #1A0706",
"'  c #120504",
"]  c #40100E",
"[  c #41100E",
"{  c #3B0F0D",
"}  c #0E0403",
"|  c #42100E",
" . c #41110E",
".. c #280A08",
"X. c #110403",
"o. c #340D0C",
"O. c #390E0C",
"+. c #44110F",
"@. c #3B0F0C",
"#. c #320D0B",
"$. c #1E0806",
"%. c #260A08",
"&. c #1E0707",
"*. c #1B0605",
"=. c #44110E",
"-. c #160505",
";. c #3A0E0C",
":. c #370E0B",
">. c #0C0303",
",. c #2B0B0A",
"<. c #1E0807",
"1. c #220908",
"2. c #0F0404",
"3. c #1C0705",
"4. c #260908",
"5. c #42110F",
"6. c #441210",
"7. c #3E100E",
"8. c #250909",
"9. c #350E0C",
"0. c #1E0706",
"q. c #370D0C",
"w. c #390F0D",
"e. c #3D100E",
"r. c #43110F",
"t. c #350D0C",
"y. c #160605",
"u. c #0D0403",
"i. c #150505",
"p. c #220907",
"a. c #2F0C0B",
"s. c #270A09",
"d. c #360D0B",
"f. c #0C0302",
"g. c #250907",
"h. c #260907",
"j. c #120404",
"k. c #47120E",
"l. c #2C0B0A",
"z. c #210907",
"x. c #1D0806",
"c. c #350E0B",
"v. c #46120E",
"b. c #3D100D",
"n. c white",
/* pixels */
"                                                            ",
"                  . X o O                                   ",
"                o + @ # $ % &       o * = -                 ",
"                ; : >   , < # 1 2 # - 3 4 5                 ",
"                6 > 7 > # 8 . 9 0 q w 3 %                   ",
"    e r t t t 5 y u i p a s d f g s h j k t > t t t t l     ",
"    z x c j c v v b n b n + i m M N h u c c c c B c V C     ",
"    . # Z C 6 A 6 o ; Z Z 7 S i D C < x F 6 6 6 C G 3 O     ",
"      H G J K K . ; 1 1 q 3 L P I U > C % , Y T N 7 C       ",
"      A M R U E 0 W 3 t , T Q r T ! r Z ~ M U ^ E M e       ",
"    . / Z r ( D V ) ^ ,   ! .     O e _ q ` D P ` s @       ",
"      Y ' ~ ] i M g H l 1 + I V C n T e ~ 4 [ { u H !       ",
"      ! } 4 |  ...4 T X.~ o.O.s s E O . x V +.@.7 Y         ",
"    . G @ > + #.$.%...& 3 &.V # 9 % o ..$.q D U q %.*.      ",
"      F 1 V _ =.M ~ }               ! -.M 0 ;.:.@ # >.      ",
"        Y r G [ s 3 & 8 ,.# 7 <.q 1.2.O p R O.s Q K         ",
"    . 3.G J D m 4.W u >.f 5.6.7.5.8.' ..4 Z 9.U <./ N .     ",
"      > 9 0.^ q.+ @ p z ~ w.e.7.r.~ } E %.g ;.t.V 9 r       ",
"        O e z H y.3 e V r u.r i.8 Q 3 > V p.E = <           ",
"              l ; a.0.q @ X 6 e ! ; y.B s.~ O.d.G 3 f.      ",
"            z / q = N 1 W ^ g.q q -.q O.p.q ^ U q h.1       ",
"          X L G > j.0.E 7 C z t # Z ~ ) t ; V 0.j.A         ",
"          5 4..       / E ; ^ k.l.U ( Y                     ",
"          ! .         >.p z z.x.8 ~ C                       ",
"                        V 4./ V @ @ O                       ",
"                        l 0 c.+ g }                         ",
"                          # v.b.7 .                         ",
"                          e W 4 H                           ",
"                            1 9                             ",
"                            O ,                             "
};
